<?xml version="1.0" encoding="UTF-8" standalone="no"?>
<!-- Created with Inkscape (http://www.inkscape.org/) -->

<svg
   xmlns:dc="http://purl.org/dc/elements/1.1/"
   xmlns:cc="http://creativecommons.org/ns#"
   xmlns:rdf="http://www.w3.org/1999/02/22-rdf-syntax-ns#"
   xmlns:svg="http://www.w3.org/2000/svg"
   xmlns="http://www.w3.org/2000/svg"
   xmlns:sodipodi="http://sodipodi.sourceforge.net/DTD/sodipodi-0.dtd"
   xmlns:inkscape="http://www.inkscape.org/namespaces/inkscape"
   id="svg3744"
   version="1.1"
   inkscape:version="0.91 r13725"
   width="1080"
   height="169.71428"
   viewBox="0 0 1080 169.71428"
   sodipodi:docname="krexus-logo-flat.svg">
  <metadata
     id="metadata3750">
    <rdf:RDF>
      <cc:Work
         rdf:about="">
        <dc:format>image/svg+xml</dc:format>
        <dc:type
           rdf:resource="http://purl.org/dc/dcmitype/StillImage" />
        <dc:title></dc:title>
      </cc:Work>
    </rdf:RDF>
  </metadata>
  <defs
     id="defs3748" />
  <sodipodi:namedview
     pagecolor="#ffffff"
     bordercolor="#666666"
     borderopacity="1"
     objecttolerance="10"
     gridtolerance="10"
     guidetolerance="10"
     inkscape:pageopacity="0"
     inkscape:pageshadow="2"
     inkscape:window-width="1680"
     inkscape:window-height="996"
     id="namedview3746"
     showgrid="false"
     fit-margin-top="0"
     fit-margin-left="0"
     fit-margin-right="0"
     fit-margin-bottom="0"
     inkscape:zoom="0.4540294"
     inkscape:cx="1015"
     inkscape:cy="159.5"
     inkscape:window-x="0"
     inkscape:window-y="0"
     inkscape:window-maximized="1"
     inkscape:current-layer="svg3744" />
  <path
     style="fill:#000000"
     d="m 110.80894,145.48408 0,-25.97877 -14.038743,-14.03125 -14.038744,-14.031243 -20.274547,19.089203 -20.274544,19.08919 -0.002,10.24138 -0.002,10.24138 -8.160752,0 c -4.488414,0 -12.867724,-0.15764 -18.62069,-0.35031 l -10.4599372,-0.35031 0,-62.428015 0,-62.42801 18.6206892,0 18.62069,0 0,30.59113 c 0,16.82513 0.179557,30.58609 0.399015,30.57992 0.219458,-0.006 15.002955,-13.77088 32.852217,-30.58822 l 32.453196,-30.57699 22.21183,-0.003 c 12.2165,-0.002 22.21182,0.071 22.21182,0.16122 0,0.0903 -10.6537,10.30563 -23.67488,22.70077 -13.02118,12.39515 -23.67488,22.67681 -23.67488,22.84815 0,0.17133 9.81818,10.12619 21.81817,22.121889 l 21.81818,21.810376 -0.13837,17.98497 -0.13837,17.98497 -15.96059,9.05449 c -8.77833,4.97997 -17.21749,9.77253 -18.7537,10.65014 l -2.7931,1.59564 0,-25.97877 z m 205.5128,15.07813 -18.7335,-10.72425 -0.0202,-15.51639 -0.0202,-15.51641 -5.95371,-5.63138 -5.9537,-5.63138 -36.07585,0 -36.07586,0 0,21.01478 0,21.01477 -18.8867,0 -18.8867,0 0,-62.512305 0,-62.51232 65.57143,0.008 65.57143,0.008 13.83251,18.6963 c 7.60789,10.28296 13.99433,18.96494 14.19209,19.29328 0.20014,0.33228 -4.46079,7.0737 -10.51149,15.2035 l -10.87106,14.606497 10.91518,10.924478 10.91519,10.92448 -0.13769,28.53758 -0.13768,28.53758 -18.73351,-10.72425 z M 289.20269,76.020235 c 1.55917,-2.12143 3.87661,-5.34525 5.14987,-7.16404 l 2.31501,-3.30689 -5.01306,-6.65035 -5.01306,-6.65035 -36.57635,-0.0181 -36.57636,-0.0181 0,13.83251 0,13.83251 36.43955,0 36.43955,0 2.83485,-3.85714 z m 77.50773,11.305415 0,-62.778325 74.7997,0 74.79971,0 -13.43291,13.83251 -13.43291,13.83252 -42.48009,0 -42.4801,0 0,11.17241 0,11.17241 46.94658,0 46.94658,0 -12.76016,12.768475 -12.76015,12.76847 -34.18643,0 -34.18642,0 0,11.17242 0,11.17241 53.59715,0 53.59715,0 -13.82484,13.83251 -13.82484,13.83251 -58.65901,0 -58.65901,0 0,-62.77832 z m 199.22542,31.1086 31.37315,-31.079594 -31.10714,-31.270661 -31.10719,-31.27066 22.33631,-0.13894 22.33626,-0.13894 20.13557,20.08968 20.13556,20.08968 19.80863,-20.08374 19.80864,-20.08375 22.30753,0 22.30754,0 -16.75586,16.89163 c -9.2157,9.29039 -23.21851,23.41596 -31.11735,31.39015 l -14.36145,14.498535 31.11874,31.12216 31.11874,31.12215 -22.07451,0 -22.07456,0 -20.0863,-20.08112 -20.08635,-20.08111 -20.08635,20.08111 -20.0863,20.08112 -22.60828,-0.0291 -22.60823,-0.029 31.3732,-31.0796 z m 179.70184,17.16849 -13.96174,-13.96921 0,-48.543105 0,-48.5431 18.8867,0 18.88669,0 0,48.6798 0,48.679805 38.03941,0 38.03941,0 0,-48.614245 0,-48.61424 18.59867,-10.70595 c 10.22925,-5.88828 18.72826,-10.70596 18.8867,-10.70596 0.15838,0 0.28803,26.63593 0.28803,59.19096 l 0,59.190955 -13.96919,13.96175 -13.96924,13.96175 -47.88182,0 -47.88188,0 -13.96174,-13.96921 z m 178.36338,0.1367 13.82485,-13.83251 47.8856,-0.0389 47.88559,-0.0389 4.3727,-5.2245 4.3727,-5.2245 -4.3727,-5.62338 -4.3727,-5.62337 -47.9672,-0.0196 -47.96727,-0.0196 -13.63508,-18.221675 c -7.49929,-10.02191 -13.67503,-18.43781 -13.72382,-18.702 -0.0489,-0.2642 6.24512,-9.05423 13.98654,-19.53342 l 14.07532,-19.05307 72.61691,-0.0183 72.6168,-0.0183 -13.8248,13.83251 -13.8249,13.83251 -47.6972,0 -47.69717,0 -4.57755,5.28638 c -2.51768,2.9075 -4.57761,5.42613 -4.57761,5.59693 0,0.17081 2.06695,2.81953 4.5932,5.88604 l 4.59319,5.57548 47.94374,0.0375 47.9438,0.0375 13.5189,18.184208 c 7.4355,10.001317 13.4572,18.423617 13.3816,18.716227 -0.075,0.29261 -6.3898,8.97118 -14.0318,19.28571 l -13.8946,18.7537 -72.63593,0 -72.63596,0 13.82485,-13.83252 z"
     id="path3754"
     inkscape:connector-curvature="0" />
</svg>
